<?xml version="1.0" encoding="UTF-8"?>
<svg version="1.1" viewBox="0 0 1600 960" width="1280" height="1280" xmlns="http://www.w3.org/2000/svg">
<path transform="translate(1104,153)" d="m0 0c2.68 10.6 4.61 21.3 6.12 32.2 0.24 1.68 0.24 1.68 0.48 3.39 2.69 20 3.78 39.8 3.71 60v3.44c-0.05 17.8-0.68 35.3-3.31 53-0.25 1.74-0.25 1.74-0.5 3.52-9.41 64.2-33.8 126-77.1 175-2.39 2.66-2.39 2.66-4.14 5.17-0.42 0.53-0.85 1.07-1.29 1.62h-2c-0.21 0.54-0.41 1.07-0.62 1.62-1.91 3.3-4.43 5.97-7.38 8.38h-2v2h-2v2c-1.36 1.41-1.36 1.41-3.31 3.06-0.74 0.63-1.48 1.25-2.24 1.9-0.81 0.67-1.62 1.35-2.45 2.04-0.81 0.68-1.62 1.37-2.45 2.07-34.4 28.7-74.8 49.9-118 62-0.76 0.23-1.52 0.45-2.31 0.69-5.01 1.32-8.3 1.16-13.2-0.81-2.83-2.31-3.84-3.52-5-7-0.26-3.99-0.33-6.95 0.88-10.8 6.01-6.37 18-8.28 26.1-11 38-13 72.5-31.8 102-59.2 1.37-1.19 2.75-2.38 4.12-3.56 6.79-5.95 12.8-12.3 18.4-19.4 1.73-2.17 3.48-4.3 5.25-6.43 8.29-10 15.4-20.6 22.2-31.7 0.62-1 0.62-1 1.25-2.02 31.2-50.8 43.8-115 44-174 0-0.67 0-1.34 0.01-2.02 0.01-15.4-1.28-30.8-2.7-46.2-0.62-6.73-1.11-13.5-1.56-20.2-47.8 9.53-95.7 25.4-138 50.6-2.12 1.27-4.26 2.5-6.41 3.72-19.7 11.3-54.4 32.7-64.9 53.7h-2c-0.34 0.81-0.34 0.81-0.69 1.64-1.7 3.06-3.94 5.51-6.25 8.11-10.1 11.7-18.4 24.8-26.1 38.2-0.36 0.63-0.73 1.26-1.1 1.91-18.6 32.6-28.7 70-32.9 107-0.14 1.22-0.14 1.22-0.29 2.46-1.11 11-0.95 22-0.96 33v3.31c0.01 17.3 0.61 34.1 3.25 51.2 0.18 1.16 0.35 2.31 0.54 3.5 5.98 40.4 5.98 40.4 19.5 78.5 2.48 0.82 2.48 0.82 5.51 1.44 1.72 0.38 1.72 0.38 3.47 0.77 1.22 0.26 2.45 0.52 3.71 0.79 1.23 0.27 2.47 0.54 3.75 0.81 19 4.07 37.6 5.38 57 5.38 2.99 0 5.97 0.02 8.96 0.03 17.9 0.06 35.5-1.41 53.1-4.41 1.26-0.21 2.51-0.42 3.81-0.64 17.7-3.11 35.4-7.28 52.3-13.4 3.38-1.21 5.69-1.78 9.33-1.78 12.1 50.7 16.8 113-11.4 159-3.96 6.19-8.63 11.6-13.6 17-0.67 0.75-1.33 1.49-2.02 2.26-10.2 10.9-24.7 20.4-40 20.9-28.4 0.5-50.1-13.6-70.2-32.5-0.91-0.88-1.83-1.77-2.77-2.68-0.49-0.47-0.98-0.94-1.48-1.42-6.16-5.91-6.16-5.91-8.52-8.58v-2h-2c-1.73-1.98-3.34-3.97-4.94-6.06-0.48-0.63-0.97-1.26-1.47-1.92-1.54-2-3.07-4.01-4.59-6.02-0.47-0.61-0.93-1.23-1.41-1.86-11.1-14.6-20.9-30-29.6-46.1-0.69-1.27-0.69-1.27-1.39-2.57-5.77-10.7-11.2-21.4-16-32.6-0.42-0.97-0.85-1.93-1.29-2.93-1.71-3.95-3.34-7.74-4.23-12-0.88-3.76-1.6-5.96-4.04-8.98-4.92-2.99-10.4-4.77-15.8-6.7-16.7-6-32.2-15.4-46.2-26.3-0.56-0.44-1.13-0.87-1.71-1.32-14.4-11.3-27.9-24.6-38.3-39.7-0.64-0.91-0.64-0.91-1.29-1.84-10.4-15-18.5-31.2-26.2-47.7-7.24-15.6-15.4-31.3-26.6-44.5-0.74-0.9-1.47-1.8-2.23-2.72-7.69-9-16.2-15.5-28.2-16.6-9.08-0.29-15.9 1.47-24.6 4.32-1.43 0.46-2.86 0.93-4.29 1.39-4.01 1.29-8.01 2.59-12 3.9-4.44 1.44-8.88 2.89-13.3 4.33-0.89 0.29-1.78 0.58-2.7 0.88-9.07 2.96-18.2 5.89-27.2 8.81-6.13 1.97-12.3 3.96-18.4 5.99-3.15 1.05-6.3 2.09-9.45 3.13-1.52 0.5-3.04 1.01-4.55 1.52-2.11 0.71-4.21 1.4-6.32 2.09-1.21 0.41-2.41 0.81-3.66 1.22-2.94 0.71-4.31 0.83-7.08-0.26 20.8-16 20.8-16 29.3-22 10.1-7.3 19.9-14.9 29.8-22.4 1.34-1.01 1.34-1.01 2.7-2.04 3.62-2.76 7.22-5.52 10.7-8.49 2.51-2.03 2.51-2.03 4.51-2.03v-2c2.12-1.95 2.12-1.95 4.88-4.12 0.9-0.73 1.8-1.45 2.74-2.2 2.38-1.68 2.38-1.68 4.38-1.68v-2c1.64-1.62 1.64-1.62 3.81-3.44 3.01-2.53 3.01-2.53 5.83-5.28 1.36-1.28 1.36-1.28 3.36-1.28v-2h2c0.25-0.56 0.5-1.11 0.75-1.69 1.25-2.31 1.25-2.31 3.03-4.42 2.77-3.61 4.82-7.45 6.97-11.4 6.9-12.6 14.7-23.7 24.2-34.4 0.98-1.11 0.98-1.11 1.99-2.25 14.9-15.9 36.9-27.5 58.8-28.2 19-0.22 34.9 5.78 50 17.2 1.22 1.23 1.22 1.23 1.22 3.23 0.55 0.21 1.1 0.43 1.66 0.65 3.15 1.82 5.37 4.3 7.78 6.97 0.48 0.54 0.97 1.08 1.47 1.64 10.1 11.4 10.1 11.4 10.1 18.7-1.12 3.48-2.23 6.11-4.62 8.88-3.62 1.71-7.38 2.43-11.4 2.12-4.51-2.03-7.18-5.33-10.2-9.12-10.8-13.1-23.4-23.3-40.9-25.1-17.2-0.81-31.6 8.13-43.9 19.2-0.61 0.53-1.22 1.06-1.85 1.6-10.5 9.73-17.8 22.7-24.4 35.2-3.14 5.81-6.56 10.6-11.1 15.3-1.85 1.88-1.85 1.88-2.63 4.87l2-1c18.3-1.59 35.3 4.86 49.2 16.4 11.6 10.2 20.2 23.3 27.7 36.6 1.15 2.04 2.32 4.06 3.49 6.08 5.33 9.31 10.1 18.8 14.6 28.5 18.6 39.4 44.2 68.6 82.5 89.7 1.23 0.67 1.23 0.67 2.48 1.37 1.99 1.1 3.98 2.19 5.97 3.29-0.28-1.1-0.55-2.21-0.84-3.35-22.3-89.4-26.6-181 15.8-269 0.35-0.72 0.7-1.44 1.06-2.19 8.03-16.3 18.5-31.3 29.6-45.7 1.51-1.98 2.97-4.01 4.36-6.09h2c0.27-0.59 0.54-1.19 0.82-1.8 1.16-2.16 2.34-3.67 4.02-5.45 0.56-0.6 1.12-1.2 1.7-1.83 0.61-0.63 1.21-1.27 1.84-1.92 0.62-0.66 1.25-1.32 1.89-2.01 1.9-2 3.81-4 5.73-5.99 0.55-0.57 1.09-1.14 1.65-1.73 6.72-6.96 13.8-13.3 21.4-19.3 1.17-0.96 2.33-1.91 3.5-2.87 8.48-6.96 17.2-13.2 26.5-19.1 1.06-0.68 2.11-1.35 3.2-2.05 51.4-32.2 108-50.5 167-63 0.93-0.2 1.86-0.4 2.82-0.61 0.87-0.18 1.75-0.37 2.64-0.56 0.76-0.16 1.52-0.32 2.3-0.49 2.44-0.37 4.77-0.4 7.24-0.34zm-103 488c-1.54 0.38-1.54 0.38-3.11 0.76-1.1 0.27-2.2 0.54-3.34 0.82-51.2 12.1-102 12.7-154 4.25 0.58 3.28 1.36 6.15 2.71 9.2 0.36 0.78 0.71 1.57 1.07 2.38 0.38 0.84 0.76 1.68 1.16 2.54 0.6 1.33 0.6 1.33 1.21 2.68 9.9 21.5 21.6 42.2 35.8 61.2 0.61 0.82 0.61 0.82 1.23 1.66 5.07 6.87 10.4 13.4 16.3 19.6 3.4 3.6 3.4 3.6 4.49 5.78h2v2h2v2c13.1 13.9 31.5 25.7 50.8 27.3 9.84-0.2 17.2-6.01 24.2-12.3 0.76-0.67 1.53-1.34 2.31-2.03 18.7-17.4 27.5-46 28.7-71 2.42-29.9 2.42-29.9-3-58-3.65-0.12-6.76 0.29-10.3 1.17z" fill="#000100"/>
</svg>
